<svg width="58" height="58" viewBox="0 0 58 58" fill="none" xmlns="http://www.w3.org/2000/svg">
<g filter="url(#filter0_d_2_91)">
<rect x="4" width="50" height="50" fill="#9376E0"/>
</g>
<path d="M35 30C34.0209 30 33.3342 30.2317 32.8617 30.6211C32.4367 30.9714 32.1916 31.4628 32.1463 32.0397H37.8537C37.8084 31.4628 37.5632 30.9714 37.1382 30.6211C36.6658 30.2317 35.979 30 35 30ZM32.1368 32.4303V32.7341H37.8631V32.4303H32.1368ZM32.5463 33.1247L32.3883 33.7757H32.3672V33.8623L31.9605 35.5368C32.0075 35.5231 32.0645 35.5102 32.1319 35.509C32.1419 35.5088 32.1522 35.5089 32.1627 35.5092C32.1906 35.5102 32.2202 35.5133 32.2513 35.5192C32.3742 35.5424 32.4378 35.591 32.4842 35.6329C32.5 35.6471 32.5137 35.6616 32.5266 35.6762L32.6403 35.2078H33.4199L33.389 35.5143C33.4143 35.5119 33.441 35.5106 33.4695 35.5109C33.483 35.5111 33.4969 35.5115 33.5112 35.5124C33.7397 35.5256 33.8414 35.6147 33.9434 35.7025C33.9497 35.7079 33.9558 35.7136 33.962 35.7192L34.0136 35.2078H34.7155V35.5693C34.7892 35.5351 34.8781 35.5116 34.9999 35.5116C35.135 35.5116 35.2296 35.5405 35.3079 35.5808V35.2078H36.034L36.0908 35.6731C36.1828 35.5957 36.2857 35.5241 36.4886 35.5124C36.5563 35.5085 36.6146 35.5125 36.6667 35.5219L36.6283 35.2078H37.3935L37.5057 35.6427C37.5091 35.6394 37.5121 35.6361 37.5156 35.6329C37.562 35.591 37.6257 35.5424 37.7486 35.5192C37.7797 35.5133 37.8093 35.5102 37.8373 35.5092C37.8478 35.5088 37.858 35.5088 37.868 35.509C37.9384 35.5103 37.9978 35.5243 38.0459 35.5386C38.0588 35.5424 38.0708 35.5466 38.0829 35.5508L37.6327 33.8058V33.7757H37.625L37.457 33.1247H36.8561L37.024 33.7757H36.4535L36.3741 33.1247H35.7797L35.8592 33.7757H35.3079V33.1247H34.7155V33.7757H34.1582L34.224 33.1247H33.6303L33.5645 33.7757H32.9882L33.1463 33.1247H32.5464L32.5463 33.1247ZM32.8933 34.1663H33.5252L33.4593 34.8172H32.7352L32.8933 34.1663ZM34.1188 34.1663H34.7155V34.8172H34.0532L34.1189 34.1663H34.1188ZM35.3079 34.1663H35.9069L35.9863 34.8172H35.3079V34.1663ZM36.5012 34.1663H37.1248L37.2928 34.8172H36.5806L36.5012 34.1663H36.5012ZM33.4557 35.9292C33.4471 35.9333 33.4452 35.9321 33.4354 35.938C33.3614 35.9826 33.258 36.0622 33.1467 36.1655C32.9242 36.3721 32.665 36.6739 32.432 37.0126C31.9658 37.6898 31.6175 38.5278 31.7431 39.0433C31.7968 39.2639 31.8794 39.3988 32.0627 39.542C32.2288 39.6716 32.5015 39.8107 32.9151 39.9835C33.1687 39.9149 33.3744 39.8518 33.5425 39.7903C33.3421 39.6285 33.2154 39.442 33.133 39.2266C32.8787 38.5613 33.1695 37.6802 33.5652 36.9387C33.6577 36.7655 33.7568 36.6011 33.8586 36.4492C33.8047 36.3567 33.7505 36.2715 33.6973 36.1975C33.6151 36.0829 33.5343 35.9927 33.4733 35.9402C33.4652 35.9332 33.4631 35.9343 33.4556 35.9293L33.4557 35.9292ZM36.5443 35.9292C36.5368 35.9342 36.5347 35.9332 36.5266 35.9402C36.4656 35.9927 36.3848 36.0829 36.3026 36.1974C36.2494 36.2715 36.1951 36.3567 36.1412 36.4492C36.243 36.6011 36.3422 36.7655 36.4346 36.9387C36.8303 37.6802 37.1212 38.5613 36.8668 39.2266C36.7844 39.442 36.6578 39.6285 36.4573 39.7903C36.6254 39.8517 36.8312 39.9149 37.0847 39.9835C37.4983 39.8108 37.7711 39.6717 37.9371 39.542C38.1204 39.3988 38.203 39.2639 38.2568 39.0433C38.3824 38.5278 38.0341 37.6898 37.5679 37.0126C37.3349 36.674 37.0757 36.3722 36.8532 36.1655C36.742 36.0623 36.6385 35.9827 36.5645 35.938C36.5547 35.9321 36.5529 35.9333 36.5443 35.9293L36.5443 35.9292ZM32.0702 35.9647C32.0076 36.0043 31.9348 36.0546 31.8502 36.1229C31.6195 36.3092 31.3348 36.5868 31.062 36.9025C30.5165 37.5337 30.024 38.3319 30.0016 38.8507C29.9849 39.2388 30.0926 39.4519 30.6406 39.8605C30.9993 39.7834 31.2384 39.7082 31.4189 39.6144C31.285 39.4614 31.204 39.293 31.1583 39.1053C30.9932 38.4278 31.3999 37.5669 31.8926 36.8512C31.9984 36.6975 32.1088 36.5518 32.2204 36.4161C32.2022 36.3344 32.1824 36.2582 32.1612 36.1903C32.1319 36.096 32.1001 36.0227 32.0702 35.9648V35.9647ZM37.9298 35.9647C37.8998 36.0227 37.8681 36.096 37.8387 36.1902C37.8176 36.2581 37.7978 36.3344 37.7796 36.4161C37.8912 36.5518 38.0016 36.6975 38.1074 36.8512C38.6 37.5669 39.0068 38.4278 38.8417 39.1053C38.796 39.293 38.715 39.4614 38.581 39.6143C38.7616 39.7082 39.0007 39.7834 39.3593 39.8605C39.9073 39.4519 40.0151 39.2389 39.9984 38.8508C39.976 38.3319 39.4834 37.5338 38.9379 36.9025C38.6652 36.5868 38.3804 36.3092 38.1497 36.123C38.0651 36.0547 37.9923 36.0043 37.9297 35.9647L37.9298 35.9647ZM34.7385 36.1671C34.7335 36.1727 34.7287 36.1776 34.7236 36.1833C34.5294 36.402 34.3113 36.7176 34.1241 37.0683C33.7496 37.7699 33.5139 38.6248 33.7075 39.1311C33.7903 39.3477 33.8906 39.4773 34.0922 39.6093C34.2749 39.7289 34.565 39.8518 35 40C35.4349 39.8518 35.7251 39.7289 35.9077 39.6093C36.1094 39.4773 36.2096 39.3476 36.2925 39.131C36.486 38.6247 36.2503 37.7698 35.8758 37.0683C35.6886 36.7175 35.4705 36.4019 35.2763 36.1833C35.2713 36.1776 35.2665 36.1727 35.2614 36.1671L35 39.5375L34.7386 36.1671H34.7385Z" fill="white"/>
<g filter="url(#filter1_d_2_91)">
<path d="M13.3882 23.348V22.964H12.6562V20.756H16.1242V25.568C14.9882 26 13.8082 26.216 12.5842 26.216C11.7442 26.216 11.0482 26.116 10.4962 25.916C9.95216 25.716 9.52016 25.42 9.20016 25.028C8.88016 24.628 8.65616 24.136 8.52816 23.552C8.40816 22.96 8.34816 22.272 8.34816 21.488C8.34816 20.656 8.42416 19.944 8.57616 19.352C8.72816 18.752 8.98016 18.264 9.33216 17.888C9.68416 17.504 10.1522 17.224 10.7362 17.048C11.3202 16.872 12.0442 16.784 12.9082 16.784C13.1002 16.784 13.3242 16.796 13.5802 16.82C13.8442 16.836 14.1082 16.864 14.3722 16.904C14.6362 16.936 14.8842 16.976 15.1162 17.024C15.3562 17.064 15.5482 17.108 15.6922 17.156L15.2602 19.364C14.8682 19.3 14.4962 19.252 14.1442 19.22C13.7922 19.18 13.4642 19.16 13.1602 19.16C12.5282 19.16 12.0842 19.208 11.8282 19.304C11.5722 19.4 11.4442 19.592 11.4442 19.88V23.96H12.3922C12.7442 23.96 12.9962 23.924 13.1482 23.852C13.3082 23.772 13.3882 23.604 13.3882 23.348ZM19.3849 21.512C19.3849 20.688 19.4529 19.98 19.5889 19.388C19.7329 18.788 19.9689 18.296 20.2969 17.912C20.6329 17.528 21.0729 17.244 21.6169 17.06C22.1609 16.876 22.8329 16.784 23.6329 16.784C24.4409 16.784 25.1129 16.876 25.6489 17.06C26.1929 17.244 26.6289 17.528 26.9569 17.912C27.2929 18.296 27.5289 18.788 27.6649 19.388C27.8089 19.98 27.8809 20.688 27.8809 21.512C27.8809 22.296 27.8169 22.984 27.6889 23.576C27.5609 24.16 27.3329 24.648 27.0049 25.04C26.6849 25.432 26.2489 25.728 25.6969 25.928C25.1529 26.12 24.4649 26.216 23.6329 26.216C22.8009 26.216 22.1089 26.12 21.5569 25.928C21.0129 25.728 20.5769 25.432 20.2489 25.04C19.9289 24.648 19.7049 24.16 19.5769 23.576C19.4489 22.984 19.3849 22.296 19.3849 21.512ZM22.4809 20.012V23.756H23.6809C24.0809 23.756 24.3649 23.712 24.5329 23.624C24.7089 23.528 24.7969 23.316 24.7969 22.988V19.244H23.5849C23.2009 19.244 22.9209 19.292 22.7449 19.388C22.5689 19.476 22.4809 19.684 22.4809 20.012ZM33.7592 24.572L33.4352 26H30.3992L32.7272 17H37.1792L39.5072 26H36.4712L36.1352 24.572H33.7592ZM35.0312 19.76H34.8752L34.2872 22.28H35.6072L35.0312 19.76ZM48.8725 17V19.304H46.7845V26H43.9045V19.304H41.8165V17H48.8725Z" fill="#EAEBFF"/>
</g>
<path d="M12.0261 30.0001C11.9849 29.9999 11.9439 29.9999 11.9027 30.0008C11.7517 30.0039 11.6007 30.0143 11.4506 30.0308C11.4581 30.0345 11.4628 30.0379 11.4612 30.0406L10.8989 30.9219L12.5567 32.0267L12.5539 32.0309L14.138 32.0371L14.6273 31.0162L13.9957 30.4065C13.6399 30.2546 13.2669 30.1433 12.8861 30.0762C12.6024 30.0262 12.3142 30.0011 12.0261 30.0001H12.0261ZM10.5878 31.2166L8.93564 32.0385L8.62581 34.2376L9.77747 34.9897L11.8936 34.019L12.2273 32.3095L10.5878 31.2166H10.5878ZM14.9918 31.2243L14.5152 32.2187L15.3395 33.8438L16.7316 34.7132L16.9853 34.2376C16.9903 34.2408 16.9954 34.2466 17 34.2543C16.9827 34.1436 16.9616 34.0333 16.937 33.924C16.7924 33.2851 16.52 32.6734 16.1407 32.1369C15.9373 31.8493 15.7027 31.5832 15.4432 31.3436L14.9918 31.2242L14.9918 31.2243ZM8.20316 31.7382C8.04826 31.918 7.9058 32.1083 7.77838 32.3081C7.42676 32.8593 7.18532 33.4812 7.07324 34.1252C7.01858 34.4389 6.9946 34.7581 7.00102 35.077L7.45523 35.1908L8.1961 34.2858L8.52066 31.9826L8.20316 31.7382ZM15.2175 34.26L13.9656 35.26L13.8878 37.5191L14.7766 37.9912L16.5079 36.8829L16.6068 35.1231L16.6047 35.1266L15.2175 34.2599L15.2175 34.26ZM12.0584 34.4031L9.94917 35.371L9.92185 37.0833L11.9216 38.3655L13.4679 37.5513L13.545 35.2775L12.0583 34.4031H12.0584ZM7.02905 35.5149C7.04946 35.7034 7.08042 35.8907 7.12227 36.0756C7.26684 36.7145 7.53992 37.3262 7.91926 37.8627C8.00614 37.9856 8.09915 38.1041 8.19681 38.2188L7.98655 37.1427L7.98934 37.142L7.38305 35.6035L7.02905 35.5149ZM9.6576 37.4109L8.50173 37.5931L8.72884 38.7573C8.92122 38.9246 9.12601 39.0775 9.3415 39.214C9.66925 39.4215 10.0218 39.5912 10.3887 39.7189L11.7934 39.4129L11.696 38.7174L9.65763 37.4108L9.6576 37.4109ZM16.4413 37.422L15.0009 38.3439L14.0588 39.4025L14.1577 39.5401C14.4274 39.4162 14.6863 39.2687 14.9294 39.0994C15.4671 38.7249 15.9299 38.2434 16.2815 37.6922C16.3378 37.604 16.3907 37.5137 16.4413 37.422L16.4413 37.422ZM13.6873 39.6043L11.8943 39.8194L11.3118 39.9458C11.9173 40.0352 12.5391 40.0138 13.1357 39.8829C13.3468 39.8366 13.5548 39.7759 13.7581 39.7028L13.6873 39.6043L13.6873 39.6043Z" fill="white"/>
<path d="M23.8225 30C22.6675 30.0408 21.5241 30.4802 20.6143 31.3182L22.9421 33.6459C23.6699 32.8168 24.0028 31.5826 23.8225 30ZM24.2442 30.0025C24.4221 31.6591 24.0629 33.0168 23.2386 33.9425L24 34.7038L27.3857 31.3182C26.4934 30.4963 25.3765 30.0576 24.2442 30.0025ZM20.3182 31.6143C19.4802 32.5241 19.0408 33.6675 19 34.8225C20.5826 35.0028 21.8168 34.6699 22.646 33.9421L20.3182 31.6143ZM27.6819 31.6143L24.2962 35L25.0572 35.761C25.844 35.0604 26.9429 34.6959 28.2722 34.7115C28.5069 34.7142 28.7489 34.729 28.9975 34.7557C28.9424 33.6235 28.5037 32.5065 27.6818 31.6143H27.6819ZM22.9425 34.2386C22.0168 35.0629 20.6591 35.4221 19.0025 35.2442C19.0576 36.3764 19.4963 37.4934 20.3182 38.3857L23.7038 35L22.9425 34.2386ZM28.1774 35.1289C26.985 35.1299 26.0336 35.4614 25.3541 36.0579L27.6818 38.3857C28.5198 37.4759 28.9592 36.3325 29 35.1775C28.7144 35.1449 28.4399 35.1288 28.1773 35.129L28.1774 35.1289ZM24 35.2962L20.6143 38.6818C21.5066 39.5037 22.6235 39.9424 23.7558 39.9975C23.5779 38.3409 23.9371 36.9832 24.7614 36.0576L24 35.2962ZM25.0579 36.3541C24.3301 37.1832 23.9972 38.4174 24.1775 40C25.3325 39.9592 26.4759 39.5198 27.3857 38.6818L25.0579 36.3541Z" fill="white"/>
<path d="M47.4267 30C47.4025 30 47.3781 30.0001 47.354 30.0007C47.2436 30.0035 47.1343 30.0128 47.0263 30.0287C46.1624 30.1563 45.3601 30.7054 44.709 31.4277C44.0578 32.1501 43.5616 33.0418 43.306 33.8106C43.1782 34.195 43.1113 34.5488 43.1091 34.8271C43.1069 35.1055 43.1726 35.2958 43.2646 35.3878L45.6113 37.7353C45.7034 37.8274 45.8943 37.893 46.1727 37.8908C46.4158 37.8889 46.7165 37.8376 47.045 37.7393C47.0721 37.3401 47.2468 36.9566 47.5335 36.6734C47.8463 36.3643 48.2787 36.1875 48.7202 36.1875C48.9854 36.1875 49.2471 36.2518 49.4818 36.3697C49.5118 36.3436 49.5417 36.3175 49.5712 36.2909C50.2935 35.6397 50.8433 34.8374 50.9708 33.9735C51.0984 33.1095 50.8238 32.1671 49.8282 31.1715C48.9843 30.3274 48.1788 30.0019 47.4267 30ZM43.4101 36.0773C43.4173 36.6927 43.1281 37.1922 42.7253 37.6098C42.2221 38.1315 41.5526 38.571 41 39.1016C41.1113 39.4686 41.177 39.6492 41.2643 39.7376C41.3516 39.8262 41.528 39.8918 41.8964 40C42.423 39.4482 42.8455 38.7625 43.3594 38.2486C43.629 37.9789 43.9296 37.7552 44.2905 37.6418C44.4785 37.5827 44.6816 37.5569 44.8992 37.5664L43.4101 36.0773L43.4101 36.0773ZM48.7202 36.5719C48.383 36.5719 48.0416 36.7121 47.8038 36.9469C47.5661 37.1819 47.4253 37.5176 47.4254 37.8487C47.4255 38.1797 47.5661 38.5158 47.8038 38.7505C48.0416 38.9852 48.3831 39.1249 48.7202 39.1249C49.0574 39.1249 49.3989 38.9852 49.6366 38.7505C49.8743 38.5158 50.015 38.1797 50.0151 37.8487C50.0152 37.5176 49.8744 37.1819 49.6366 36.9469C49.3989 36.7121 49.0575 36.5719 48.7202 36.5719Z" fill="white"/>
<defs>
<filter id="filter0_d_2_91" x="0" y="0" width="58" height="58" filterUnits="userSpaceOnUse" color-interpolation-filters="sRGB">
<feFlood flood-opacity="0" result="BackgroundImageFix"/>
<feColorMatrix in="SourceAlpha" type="matrix" values="0 0 0 0 0 0 0 0 0 0 0 0 0 0 0 0 0 0 127 0" result="hardAlpha"/>
<feOffset dy="4"/>
<feGaussianBlur stdDeviation="2"/>
<feComposite in2="hardAlpha" operator="out"/>
<feColorMatrix type="matrix" values="0 0 0 0 0 0 0 0 0 0 0 0 0 0 0 0 0 0 0.25 0"/>
<feBlend mode="normal" in2="BackgroundImageFix" result="effect1_dropShadow_2_91"/>
<feBlend mode="normal" in="SourceGraphic" in2="effect1_dropShadow_2_91" result="shape"/>
</filter>
<filter id="filter1_d_2_91" x="5.34815" y="13.784" width="48.5244" height="17.432" filterUnits="userSpaceOnUse" color-interpolation-filters="sRGB">
<feFlood flood-opacity="0" result="BackgroundImageFix"/>
<feColorMatrix in="SourceAlpha" type="matrix" values="0 0 0 0 0 0 0 0 0 0 0 0 0 0 0 0 0 0 127 0" result="hardAlpha"/>
<feOffset dx="1" dy="1"/>
<feGaussianBlur stdDeviation="2"/>
<feComposite in2="hardAlpha" operator="out"/>
<feColorMatrix type="matrix" values="0 0 0 0 0 0 0 0 0 0 0 0 0 0 0 0 0 0 0.25 0"/>
<feBlend mode="normal" in2="BackgroundImageFix" result="effect1_dropShadow_2_91"/>
<feBlend mode="normal" in="SourceGraphic" in2="effect1_dropShadow_2_91" result="shape"/>
</filter>
</defs>
</svg>
