<svg width="50" height="50" viewBox="0 0 50 50" fill="none" xmlns="http://www.w3.org/2000/svg">
<rect width="50" height="50" fill="#9376E0"/>
<rect width="50" height="50" stroke="none"/>
<path d="M31 30C30.0209 30 29.3342 30.2317 28.8617 30.6211C28.4367 30.9714 28.1916 31.4628 28.1463 32.0397H33.8537C33.8084 31.4628 33.5632 30.9714 33.1382 30.6211C32.6658 30.2317 31.979 30 31 30ZM28.1368 32.4303V32.7341H33.8631V32.4303H28.1368ZM28.5463 33.1247L28.3883 33.7757H28.3672V33.8623L27.9605 35.5368C28.0075 35.5231 28.0645 35.5102 28.1319 35.509C28.1419 35.5087 28.1522 35.5089 28.1627 35.5092C28.1906 35.5102 28.2202 35.5133 28.2513 35.5192C28.3742 35.5424 28.4378 35.591 28.4842 35.6329C28.5 35.6471 28.5137 35.6616 28.5266 35.6762L28.6403 35.2078H29.4199L29.389 35.5143C29.4143 35.5119 29.441 35.5106 29.4695 35.5109C29.483 35.5111 29.4969 35.5115 29.5112 35.5124C29.7397 35.5256 29.8414 35.6147 29.9434 35.7025C29.9497 35.7079 29.9558 35.7136 29.962 35.7192L30.0136 35.2078H30.7155V35.5693C30.7892 35.5351 30.8781 35.5116 30.9999 35.5116C31.135 35.5116 31.2296 35.5405 31.3079 35.5808V35.2078H32.034L32.0908 35.6731C32.1828 35.5957 32.2857 35.5241 32.4886 35.5124C32.5563 35.5085 32.6146 35.5125 32.6667 35.5219L32.6283 35.2078H33.3935L33.5057 35.6427C33.5091 35.6394 33.5121 35.6361 33.5156 35.6329C33.562 35.591 33.6257 35.5424 33.7486 35.5192C33.7797 35.5133 33.8093 35.5102 33.8373 35.5092C33.8478 35.5088 33.858 35.5087 33.868 35.509C33.9384 35.5103 33.9978 35.5243 34.0459 35.5386C34.0588 35.5424 34.0708 35.5466 34.0829 35.5508L33.6327 33.8058V33.7757H33.625L33.457 33.1247H32.8561L33.024 33.7757H32.4535L32.3741 33.1247H31.7797L31.8592 33.7757H31.3079V33.1247H30.7155V33.7757H30.1582L30.224 33.1247H29.6303L29.5645 33.7757H28.9882L29.1463 33.1247H28.5464L28.5463 33.1247ZM28.8933 34.1663H29.5252L29.4593 34.8172H28.7352L28.8933 34.1663ZM30.1188 34.1663H30.7155V34.8172H30.0532L30.1189 34.1663H30.1188ZM31.3079 34.1663H31.9069L31.9863 34.8172H31.3079V34.1663ZM32.5012 34.1663H33.1248L33.2928 34.8172H32.5806L32.5012 34.1663H32.5012ZM29.4557 35.9292C29.4471 35.9333 29.4452 35.9321 29.4354 35.938C29.3614 35.9826 29.258 36.0622 29.1467 36.1655C28.9242 36.3721 28.665 36.6739 28.432 37.0126C27.9658 37.6898 27.6175 38.5278 27.7431 39.0433C27.7968 39.2639 27.8794 39.3988 28.0627 39.542C28.2288 39.6716 28.5015 39.8107 28.9151 39.9835C29.1687 39.9149 29.3744 39.8518 29.5425 39.7903C29.3421 39.6285 29.2154 39.442 29.133 39.2266C28.8787 38.5613 29.1695 37.6802 29.5652 36.9387C29.6577 36.7655 29.7568 36.6011 29.8586 36.4492C29.8047 36.3567 29.7505 36.2715 29.6973 36.1975C29.6151 36.0829 29.5343 35.9927 29.4733 35.9402C29.4652 35.9332 29.4631 35.9343 29.4556 35.9293L29.4557 35.9292ZM32.5443 35.9292C32.5368 35.9342 32.5347 35.9332 32.5266 35.9402C32.4656 35.9927 32.3848 36.0829 32.3026 36.1974C32.2494 36.2715 32.1951 36.3567 32.1412 36.4492C32.243 36.6011 32.3422 36.7655 32.4346 36.9387C32.8303 37.6802 33.1212 38.5613 32.8668 39.2266C32.7844 39.442 32.6578 39.6285 32.4573 39.7903C32.6254 39.8517 32.8312 39.9149 33.0847 39.9835C33.4983 39.8108 33.7711 39.6717 33.9371 39.542C34.1204 39.3988 34.203 39.2639 34.2568 39.0433C34.3824 38.5278 34.0341 37.6898 33.5679 37.0126C33.3349 36.674 33.0757 36.3722 32.8532 36.1655C32.742 36.0623 32.6385 35.9827 32.5645 35.938C32.5547 35.9321 32.5529 35.9333 32.5443 35.9293L32.5443 35.9292ZM28.0702 35.9647C28.0076 36.0043 27.9348 36.0546 27.8502 36.1229C27.6195 36.3092 27.3348 36.5868 27.062 36.9025C26.5165 37.5337 26.024 38.3319 26.0016 38.8507C25.9849 39.2388 26.0926 39.4519 26.6406 39.8605C26.9993 39.7834 27.2384 39.7082 27.4189 39.6144C27.285 39.4614 27.204 39.293 27.1583 39.1053C26.9932 38.4278 27.3999 37.5669 27.8926 36.8512C27.9984 36.6975 28.1088 36.5518 28.2204 36.4161C28.2022 36.3344 28.1824 36.2582 28.1612 36.1903C28.1319 36.096 28.1001 36.0227 28.0702 35.9648V35.9647ZM33.9298 35.9647C33.8998 36.0227 33.8681 36.096 33.8387 36.1902C33.8176 36.2581 33.7978 36.3344 33.7796 36.4161C33.8912 36.5518 34.0016 36.6975 34.1074 36.8512C34.6 37.5669 35.0068 38.4278 34.8417 39.1053C34.796 39.293 34.715 39.4614 34.581 39.6143C34.7616 39.7082 35.0007 39.7834 35.3593 39.8605C35.9073 39.4519 36.0151 39.2389 35.9984 38.8508C35.976 38.3319 35.4834 37.5338 34.9379 36.9025C34.6652 36.5868 34.3804 36.3092 34.1497 36.123C34.0651 36.0547 33.9923 36.0043 33.9297 35.9647L33.9298 35.9647ZM30.7385 36.1671C30.7335 36.1727 30.7287 36.1776 30.7236 36.1833C30.5294 36.402 30.3113 36.7176 30.1241 37.0683C29.7496 37.7699 29.5139 38.6248 29.7075 39.1311C29.7903 39.3477 29.8906 39.4773 30.0922 39.6093C30.2749 39.7289 30.565 39.8518 31 40C31.4349 39.8518 31.7251 39.7289 31.9077 39.6093C32.1094 39.4773 32.2096 39.3476 32.2925 39.131C32.486 38.6247 32.2503 37.7698 31.8758 37.0683C31.6886 36.7175 31.4705 36.4019 31.2763 36.1833C31.2713 36.1776 31.2665 36.1727 31.2614 36.1671L31 39.5375L30.7386 36.1671H30.7385Z" fill="white"/>
<g filter="url(#filter0_d_2_91)">
<path d="M9.38816 23.348V22.964H8.65616V20.756H12.1242V25.568C10.9882 26 9.80816 26.216 8.58416 26.216C7.74416 26.216 7.04816 26.116 6.49616 25.916C5.95216 25.716 5.52016 25.42 5.20016 25.028C4.88016 24.628 4.65616 24.136 4.52816 23.552C4.40816 22.96 4.34816 22.272 4.34816 21.488C4.34816 20.656 4.42416 19.944 4.57616 19.352C4.72816 18.752 4.98016 18.264 5.33216 17.888C5.68416 17.504 6.15216 17.224 6.73616 17.048C7.32016 16.872 8.04416 16.784 8.90816 16.784C9.10016 16.784 9.32416 16.796 9.58016 16.82C9.84416 16.836 10.1082 16.864 10.3722 16.904C10.6362 16.936 10.8842 16.976 11.1162 17.024C11.3562 17.064 11.5482 17.108 11.6922 17.156L11.2602 19.364C10.8682 19.3 10.4962 19.252 10.1442 19.22C9.79216 19.18 9.46416 19.16 9.16016 19.16C8.52816 19.16 8.08416 19.208 7.82816 19.304C7.57216 19.4 7.44416 19.592 7.44416 19.88V23.96H8.39216C8.74416 23.96 8.99616 23.924 9.14816 23.852C9.30816 23.772 9.38816 23.604 9.38816 23.348ZM15.3849 21.512C15.3849 20.688 15.4529 19.98 15.5889 19.388C15.7329 18.788 15.9689 18.296 16.2969 17.912C16.6329 17.528 17.0729 17.244 17.6169 17.06C18.1609 16.876 18.8329 16.784 19.6329 16.784C20.4409 16.784 21.1129 16.876 21.6489 17.06C22.1929 17.244 22.6289 17.528 22.9569 17.912C23.2929 18.296 23.5289 18.788 23.6649 19.388C23.8089 19.98 23.8809 20.688 23.8809 21.512C23.8809 22.296 23.8169 22.984 23.6889 23.576C23.5609 24.16 23.3329 24.648 23.0049 25.04C22.6849 25.432 22.2489 25.728 21.6969 25.928C21.1529 26.12 20.4649 26.216 19.6329 26.216C18.8009 26.216 18.1089 26.12 17.5569 25.928C17.0129 25.728 16.5769 25.432 16.2489 25.04C15.9289 24.648 15.7049 24.16 15.5769 23.576C15.4489 22.984 15.3849 22.296 15.3849 21.512ZM18.4809 20.012V23.756H19.6809C20.0809 23.756 20.3649 23.712 20.5329 23.624C20.7089 23.528 20.7969 23.316 20.7969 22.988V19.244H19.5849C19.2009 19.244 18.9209 19.292 18.7449 19.388C18.5689 19.476 18.4809 19.684 18.4809 20.012ZM29.7592 24.572L29.4352 26H26.3992L28.7272 17H33.1792L35.5072 26H32.4712L32.1352 24.572H29.7592ZM31.0312 19.76H30.8752L30.2872 22.28H31.6072L31.0312 19.76ZM44.8725 17V19.304H42.7845V26H39.9045V19.304H37.8165V17H44.8725Z" fill="#EAEBFF"/>
</g>
<path d="M8.02606 30.0001C7.98492 29.9999 7.94387 29.9999 7.90269 30.0008C7.75173 30.0039 7.60073 30.0143 7.45061 30.0308C7.45808 30.0345 7.46281 30.0379 7.46115 30.0406L6.89894 30.9219L8.55669 32.0267L8.55388 32.0309L10.138 32.0371L10.6273 31.0162L9.99574 30.4065C9.63986 30.2546 9.26692 30.1433 8.88612 30.0762C8.60238 30.0262 8.31422 30.0011 8.02608 30.0001H8.02606ZM6.58776 31.2166L4.93564 32.0385L4.62581 34.2376L5.77747 34.9897L7.89365 34.019L8.2273 32.3095L6.58779 31.2166H6.58776ZM10.9918 31.2243L10.5152 32.2187L11.3395 33.8438L12.7316 34.7132L12.9853 34.2376C12.9903 34.2408 12.9954 34.2466 13 34.2543C12.9827 34.1436 12.9616 34.0333 12.937 33.924C12.7924 33.2851 12.52 32.6734 12.1407 32.1369C11.9373 31.8493 11.7027 31.5832 11.4432 31.3436L10.9918 31.2242L10.9918 31.2243ZM4.20316 31.7382C4.04826 31.918 3.9058 32.1083 3.77838 32.3081C3.42676 32.8593 3.18532 33.4812 3.07324 34.1252C3.01858 34.4389 2.9946 34.7581 3.00102 35.077L3.45523 35.1908L4.1961 34.2858L4.52066 31.9826L4.20316 31.7382ZM11.2175 34.26L9.96562 35.26L9.88779 37.5191L10.7766 37.9912L12.5079 36.8829L12.6068 35.1231L12.6047 35.1266L11.2175 34.2599L11.2175 34.26ZM8.05835 34.4031L5.94917 35.371L5.92185 37.0833L7.92162 38.3655L9.46791 37.5513L9.54501 35.2775L8.05833 34.4031H8.05835ZM3.02905 35.5149C3.04946 35.7034 3.08042 35.8907 3.12227 36.0756C3.26684 36.7145 3.53992 37.3262 3.91926 37.8627C4.00614 37.9856 4.09915 38.1041 4.19681 38.2188L3.98655 37.1427L3.98934 37.142L3.38305 35.6035L3.02905 35.5149ZM5.6576 37.4109L4.50173 37.5931L4.72884 38.7573C4.92122 38.9246 5.12601 39.0775 5.3415 39.214C5.66925 39.4215 6.02185 39.5912 6.38869 39.7189L7.79341 39.4129L7.69597 38.7174L5.65763 37.4108L5.6576 37.4109ZM12.4413 37.422L11.0009 38.3439L10.0588 39.4025L10.1577 39.5401C10.4274 39.4162 10.6863 39.2687 10.9294 39.0994C11.4671 38.7249 11.9299 38.2434 12.2815 37.6922C12.3378 37.604 12.3907 37.5137 12.4413 37.422L12.4413 37.422ZM9.68735 39.6044L7.89428 39.8194L7.31181 39.9458C7.91727 40.0352 8.53912 40.0138 9.13568 39.8829C9.34679 39.8366 9.55476 39.7759 9.75812 39.7028L9.68733 39.6043L9.68735 39.6044Z" fill="white"/>
<path d="M19.8225 30C18.6675 30.0408 17.5241 30.4802 16.6143 31.3182L18.9421 33.6459C19.6699 32.8168 20.0028 31.5826 19.8225 30ZM20.2442 30.0025C20.4221 31.6591 20.0629 33.0168 19.2386 33.9425L20 34.7038L23.3857 31.3182C22.4934 30.4963 21.3765 30.0576 20.2442 30.0025ZM16.3182 31.6143C15.4802 32.5241 15.0408 33.6675 15 34.8225C16.5826 35.0028 17.8168 34.6699 18.646 33.9421L16.3182 31.6143ZM23.6819 31.6143L20.2962 35L21.0572 35.761C21.844 35.0604 22.9429 34.6959 24.2722 34.7115C24.5069 34.7142 24.7489 34.729 24.9975 34.7557C24.9424 33.6235 24.5037 32.5065 23.6818 31.6143H23.6819ZM18.9425 34.2386C18.0168 35.0629 16.6591 35.4221 15.0025 35.2442C15.0576 36.3764 15.4963 37.4934 16.3182 38.3857L19.7038 35L18.9425 34.2386ZM24.1774 35.1289C22.985 35.1299 22.0336 35.4614 21.3541 36.0579L23.6818 38.3857C24.5198 37.4759 24.9592 36.3325 25 35.1775C24.7144 35.1449 24.4399 35.1288 24.1773 35.129L24.1774 35.1289ZM20 35.2962L16.6143 38.6818C17.5066 39.5037 18.6235 39.9424 19.7558 39.9975C19.5779 38.3409 19.9371 36.9832 20.7614 36.0576L20 35.2962ZM21.0579 36.3541C20.3301 37.1832 19.9972 38.4174 20.1775 40C21.3325 39.9592 22.4759 39.5198 23.3857 38.6818L21.0579 36.3541Z" fill="white"/>
<path d="M43.4267 30C43.4025 30 43.3781 30.0001 43.354 30.0007C43.2436 30.0035 43.1343 30.0128 43.0263 30.0287C42.1624 30.1563 41.3601 30.7054 40.709 31.4277C40.0578 32.1501 39.5616 33.0418 39.306 33.8106C39.1782 34.195 39.1113 34.5488 39.1091 34.8271C39.1069 35.1055 39.1726 35.2958 39.2646 35.3878L41.6113 37.7353C41.7034 37.8274 41.8943 37.893 42.1726 37.8908C42.4158 37.8889 42.7165 37.8376 43.045 37.7393C43.0721 37.3401 43.2468 36.9566 43.5335 36.6734C43.8463 36.3643 44.2787 36.1875 44.7202 36.1875C44.9854 36.1875 45.2471 36.2518 45.4818 36.3697C45.5118 36.3436 45.5417 36.3175 45.5712 36.2909C46.2935 35.6397 46.8433 34.8374 46.9708 33.9735C47.0984 33.1095 46.8238 32.1671 45.8282 31.1715C44.9843 30.3274 44.1788 30.0019 43.4267 30ZM39.4101 36.0773C39.4173 36.6927 39.1281 37.1922 38.7253 37.6098C38.2221 38.1315 37.5526 38.571 37 39.1016C37.1113 39.4686 37.177 39.6492 37.2643 39.7376C37.3516 39.8262 37.528 39.8918 37.8964 40C38.423 39.4482 38.8455 38.7625 39.3594 38.2486C39.629 37.9789 39.9296 37.7552 40.2905 37.6418C40.4785 37.5827 40.6816 37.5569 40.8992 37.5664L39.4101 36.0773L39.4101 36.0773ZM44.7202 36.5719C44.383 36.5719 44.0416 36.7121 43.8038 36.9469C43.5661 37.1819 43.4253 37.5176 43.4254 37.8487C43.4255 38.1797 43.5661 38.5158 43.8038 38.7505C44.0416 38.9852 44.3831 39.1249 44.7202 39.1249C45.0574 39.1249 45.3989 38.9852 45.6366 38.7505C45.8743 38.5158 46.015 38.1797 46.0151 37.8487C46.0152 37.5176 45.8744 37.1819 45.6366 36.9469C45.3989 36.7121 45.0575 36.5719 44.7202 36.5719Z" fill="white"/>
<defs>
<filter id="filter0_d_2_91" x="1.34815" y="13.784" width="48.5244" height="17.432" filterUnits="userSpaceOnUse" color-interpolation-filters="sRGB">
<feFlood flood-opacity="0" result="BackgroundImageFix"/>
<feColorMatrix in="SourceAlpha" type="matrix" values="0 0 0 0 0 0 0 0 0 0 0 0 0 0 0 0 0 0 127 0" result="hardAlpha"/>
<feOffset dx="1" dy="1"/>
<feGaussianBlur stdDeviation="2"/>
<feComposite in2="hardAlpha" operator="out"/>
<feColorMatrix type="matrix" values="0 0 0 0 0 0 0 0 0 0 0 0 0 0 0 0 0 0 0.25 0"/>
<feBlend mode="normal" in2="BackgroundImageFix" result="effect1_dropShadow_2_91"/>
<feBlend mode="normal" in="SourceGraphic" in2="effect1_dropShadow_2_91" result="shape"/>
</filter>
</defs>
</svg>
